<svg width="72" height="86" viewBox="0 0 72 86" fill="none" xmlns="http://www.w3.org/2000/svg">
<path d="M70.491 67.0201C69.1983 70.0247 67.6682 72.7904 65.8954 75.3332C63.4788 78.7996 61.5002 81.1991 59.9754 82.5315C57.6116 84.7186 55.079 85.8387 52.367 85.9024C50.4201 85.9024 48.0721 85.345 45.339 84.2143C42.5969 83.0889 40.077 82.5315 37.7728 82.5315C35.3563 82.5315 32.7646 83.0889 29.9924 84.2143C27.2161 85.345 24.9795 85.9342 23.2694 85.9926C20.6687 86.1041 18.0765 84.9522 15.489 82.5315C13.8376 81.0823 11.7719 78.5979 9.29732 75.0784C6.6423 71.32 4.45951 66.9617 2.74947 61.993C0.918071 56.6261 0 51.4291 0 46.3977C0 40.6343 1.23781 35.6634 3.71713 31.4979C5.66566 28.1519 8.25789 25.5126 11.5023 23.575C14.7467 21.6374 18.2522 20.65 22.0274 20.5868C24.093 20.5868 26.8019 21.2297 30.1681 22.4931C33.5249 23.7608 35.6803 24.4036 36.6252 24.4036C37.3317 24.4036 39.7261 23.6519 43.7851 22.1534C47.6236 20.7636 50.8633 20.1882 53.5172 20.4148C60.7088 20.9988 66.1117 23.851 69.7048 28.9896C63.2731 32.9105 60.0915 38.4021 60.1548 45.447C60.2128 50.9344 62.1914 55.5007 66.08 59.1264C67.8423 60.8092 69.8103 62.1098 72 63.0334C71.5251 64.419 71.0239 65.7461 70.491 67.0201ZM53.9974 1.72049C53.9974 6.02147 52.4356 10.0373 49.3226 13.7543C45.5659 18.1731 41.022 20.7264 36.0944 20.3235C36.0317 19.8075 35.9953 19.2645 35.9953 18.6938C35.9953 14.5649 37.7818 10.1461 40.9544 6.53316C42.5384 4.70386 44.5528 3.18282 46.9958 1.96946C49.4334 0.774197 51.7391 0.113194 53.9077 0C53.971 0.574975 53.9974 1.15004 53.9974 1.72049Z" fill="white"/>
</svg>
