<svg width="141" height="70" viewBox="0 0 141 70" fill="none" xmlns="http://www.w3.org/2000/svg">
<path d="M70.3215 70C61.8048 70 54.3673 67.3458 48.009 62.0375C41.6506 56.7292 37.6548 50.05 36.0215 42H0.321472V28H36.0215C37.6548 19.95 41.6506 13.2708 48.009 7.9625C54.3673 2.65417 61.8048 0 70.3215 0C78.8381 0 86.2756 2.65417 92.634 7.9625C98.9923 13.2708 102.988 19.95 104.621 28H140.321V42H104.621C102.988 50.05 98.9923 56.7292 92.634 62.0375C86.2756 67.3458 78.8381 70 70.3215 70ZM70.3215 56C76.1548 56 81.1131 53.9583 85.1965 49.875C89.2798 45.7917 91.3215 40.8333 91.3215 35C91.3215 29.1667 89.2798 24.2083 85.1965 20.125C81.1131 16.0417 76.1548 14 70.3215 14C64.4881 14 59.5298 16.0417 55.4465 20.125C51.3631 24.2083 49.3215 29.1667 49.3215 35C49.3215 40.8333 51.3631 45.7917 55.4465 49.875C59.5298 53.9583 64.4881 56 70.3215 56Z" fill="url(#paint0_linear_43_6)"/>
<defs>
<linearGradient id="paint0_linear_43_6" x1="2.5" y1="35" x2="140" y2="35" gradientUnits="userSpaceOnUse">
<stop stop-color="#B1D0FE"/>
<stop offset="1" stop-color="#385683"/>
</linearGradient>
</defs>
</svg>
