<svg width="60" height="60" viewBox="0 0 60 60" fill="none" xmlns="http://www.w3.org/2000/svg">
<mask id="mask0_3_203" style="mask-type:alpha" maskUnits="userSpaceOnUse" x="0" y="0" width="60" height="60">
<rect width="60" height="60" fill="#D9D9D9"/>
</mask>
<g mask="url(#mask0_3_203)">
<path d="M29.9999 52.5C25.1249 52.5 20.9895 50.8021 17.5937 47.4062C14.1979 44.0104 12.4999 39.875 12.4999 35C12.4999 31.7917 13.0312 28.5625 14.0937 25.3125C15.1562 22.0625 16.5312 19.1146 18.2187 16.4688C19.9062 13.8229 21.7916 11.6667 23.8749 10C25.9583 8.33333 27.9999 7.5 29.9999 7.5C32.0416 7.5 34.0937 8.33333 36.1562 10C38.2187 11.6667 40.0937 13.8229 41.7812 16.4688C43.4687 19.1146 44.8437 22.0625 45.9062 25.3125C46.9687 28.5625 47.4999 31.7917 47.4999 35C47.4999 39.875 45.802 44.0104 42.4062 47.4062C39.0104 50.8021 34.8749 52.5 29.9999 52.5ZM29.9999 47.5C33.4583 47.5 36.4062 46.2812 38.8437 43.8438C41.2812 41.4062 42.4999 38.4583 42.4999 35C42.4999 32.625 42.0937 30.125 41.2812 27.5C40.4687 24.875 39.4479 22.4479 38.2187 20.2188C36.9895 17.9896 35.6458 16.1458 34.1874 14.6875C32.7291 13.2292 31.3333 12.5 29.9999 12.5C28.7083 12.5 27.3229 13.2292 25.8437 14.6875C24.3645 16.1458 23.0104 17.9896 21.7812 20.2188C20.552 22.4479 19.5312 24.875 18.7187 27.5C17.9062 30.125 17.4999 32.625 17.4999 35C17.4999 38.4583 18.7187 41.4062 21.1562 43.8438C23.5937 46.2812 26.5416 47.5 29.9999 47.5ZM32.4999 45C33.2083 45 33.802 44.7604 34.2812 44.2812C34.7604 43.8021 34.9999 43.2083 34.9999 42.5C34.9999 41.7917 34.7604 41.1979 34.2812 40.7188C33.802 40.2396 33.2083 40 32.4999 40C30.4166 40 28.6458 39.2708 27.1874 37.8125C25.7291 36.3542 24.9999 34.5833 24.9999 32.5C24.9999 31.7917 24.7604 31.1979 24.2812 30.7188C23.802 30.2396 23.2083 30 22.4999 30C21.7916 30 21.1979 30.2396 20.7187 30.7188C20.2395 31.1979 19.9999 31.7917 19.9999 32.5C19.9999 35.9583 21.2187 38.9062 23.6562 41.3438C26.0937 43.7812 29.0416 45 32.4999 45Z" fill="url(#paint0_linear_3_203)"/>
</g>
<defs>
<linearGradient id="paint0_linear_3_203" x1="12.4999" y1="30" x2="47.4999" y2="30" gradientUnits="userSpaceOnUse">
<stop stop-color="#B1D0FF"/>
<stop offset="1" stop-color="#6A7D99"/>
</linearGradient>
</defs>
</svg>
