<svg width="26" height="50" viewBox="0 0 26 50" fill="none" xmlns="http://www.w3.org/2000/svg">
<path d="M8.66667 13C8.66667 11.8083 9.09097 10.7882 9.93958 9.93958C10.7882 9.09097 11.8083 8.66667 13 8.66667C14.1917 8.66667 15.2118 9.09097 16.0604 9.93958C16.909 10.7882 17.3333 11.8083 17.3333 13C17.3333 14.1917 16.909 15.2118 16.0604 16.0604C15.2118 16.909 14.1917 17.3333 13 17.3333C11.8083 17.3333 10.7882 16.909 9.93958 16.0604C9.09097 15.2118 8.66667 14.1917 8.66667 13ZM13 49.8333L3.25 40.0833L6.5 35.75L3.25 31.4167L6.5 26.8125V24.2667C4.55 23.1111 2.97917 21.5493 1.7875 19.5812C0.595833 17.6132 0 15.4194 0 13C0 9.38889 1.26389 6.31944 3.79167 3.79167C6.31944 1.26389 9.38889 0 13 0C16.6111 0 19.6806 1.26389 22.2083 3.79167C24.7361 6.31944 26 9.38889 26 13C26 15.4194 25.4042 17.6132 24.2125 19.5812C23.0208 21.5493 21.45 23.1111 19.5 24.2667V43.3333L13 49.8333ZM4.33333 13C4.33333 15.0222 4.94722 16.8007 6.175 18.3354C7.40278 19.8701 8.95556 20.8903 10.8333 21.3958V28.1667L8.6125 31.3083L11.9167 35.75L8.9375 39.5958L13 43.6583L15.1667 41.4917V21.3958C17.0444 20.8903 18.5972 19.8701 19.825 18.3354C21.0528 16.8007 21.6667 15.0222 21.6667 13C21.6667 10.6167 20.8181 8.57639 19.1208 6.87917C17.4236 5.18194 15.3833 4.33333 13 4.33333C10.6167 4.33333 8.57639 5.18194 6.87917 6.87917C5.18194 8.57639 4.33333 10.6167 4.33333 13Z" fill="url(#paint0_linear_3_187)"/>
<defs>
<linearGradient id="paint0_linear_3_187" x1="0" y1="24.9167" x2="26" y2="24.9167" gradientUnits="userSpaceOnUse">
<stop stop-color="#B1D0FF"/>
<stop offset="1" stop-color="#6A7D99"/>
</linearGradient>
</defs>
</svg>
