<svg width="38" height="38" viewBox="0 0 38 38" fill="none" xmlns="http://www.w3.org/2000/svg">
<mask id="mask0_6_306" style="mask-type:alpha" maskUnits="userSpaceOnUse" x="0" y="0" width="38" height="38">
<rect width="38" height="38" fill="#D9D9D9"/>
</mask>
<g mask="url(#mask0_6_306)">
<path d="M14.25 30.0833V26.9166H33.25V30.0833H14.25ZM14.25 20.5833V17.4166H33.25V20.5833H14.25ZM14.25 11.0833V7.91659H33.25V11.0833H14.25ZM7.91667 31.6666C7.04583 31.6666 6.30035 31.3565 5.68021 30.7364C5.06007 30.1162 4.75 29.3708 4.75 28.4999C4.75 27.6291 5.06007 26.8836 5.68021 26.2635C6.30035 25.6433 7.04583 25.3333 7.91667 25.3333C8.7875 25.3333 9.53299 25.6433 10.1531 26.2635C10.7733 26.8836 11.0833 27.6291 11.0833 28.4999C11.0833 29.3708 10.7733 30.1162 10.1531 30.7364C9.53299 31.3565 8.7875 31.6666 7.91667 31.6666ZM7.91667 22.1666C7.04583 22.1666 6.30035 21.8565 5.68021 21.2364C5.06007 20.6162 4.75 19.8708 4.75 18.9999C4.75 18.1291 5.06007 17.3836 5.68021 16.7635C6.30035 16.1433 7.04583 15.8333 7.91667 15.8333C8.7875 15.8333 9.53299 16.1433 10.1531 16.7635C10.7733 17.3836 11.0833 18.1291 11.0833 18.9999C11.0833 19.8708 10.7733 20.6162 10.1531 21.2364C9.53299 21.8565 8.7875 22.1666 7.91667 22.1666ZM7.91667 12.6666C7.04583 12.6666 6.30035 12.3565 5.68021 11.7364C5.06007 11.1162 4.75 10.3708 4.75 9.49992C4.75 8.62909 5.06007 7.8836 5.68021 7.26346C6.30035 6.64332 7.04583 6.33325 7.91667 6.33325C8.7875 6.33325 9.53299 6.64332 10.1531 7.26346C10.7733 7.8836 11.0833 8.62909 11.0833 9.49992C11.0833 10.3708 10.7733 11.1162 10.1531 11.7364C9.53299 12.3565 8.7875 12.6666 7.91667 12.6666Z" fill="#B1D0FE"/>
</g>
</svg>
