<svg width="45" height="45" viewBox="0 0 45 45" fill="none" xmlns="http://www.w3.org/2000/svg">
<mask id="mask0_3_218" style="mask-type:alpha" maskUnits="userSpaceOnUse" x="0" y="0" width="45" height="45">
<rect width="45" height="45" fill="#D9D9D9"/>
</mask>
<g mask="url(#mask0_3_218)">
<path d="M22.5 30C24 30 25.3359 29.5547 26.5078 28.6641C27.6797 27.7734 28.5312 26.625 29.0625 25.2188H15.9375C16.4688 26.625 17.3203 27.7734 18.4922 28.6641C19.6641 29.5547 21 30 22.5 30ZM17.8125 22.5C18.5938 22.5 19.2578 22.2266 19.8047 21.6797C20.3516 21.1328 20.625 20.4688 20.625 19.6875C20.625 18.9062 20.3516 18.2422 19.8047 17.6953C19.2578 17.1484 18.5938 16.875 17.8125 16.875C17.0312 16.875 16.3672 17.1484 15.8203 17.6953C15.2734 18.2422 15 18.9062 15 19.6875C15 20.4688 15.2734 21.1328 15.8203 21.6797C16.3672 22.2266 17.0312 22.5 17.8125 22.5ZM27.1875 22.5C27.9688 22.5 28.6328 22.2266 29.1797 21.6797C29.7266 21.1328 30 20.4688 30 19.6875C30 18.9062 29.7266 18.2422 29.1797 17.6953C28.6328 17.1484 27.9688 16.875 27.1875 16.875C26.4062 16.875 25.7422 17.1484 25.1953 17.6953C24.6484 18.2422 24.375 18.9062 24.375 19.6875C24.375 20.4688 24.6484 21.1328 25.1953 21.6797C25.7422 22.2266 26.4062 22.5 27.1875 22.5ZM14.2969 12L19.5469 5.20313C19.9219 4.70313 20.3672 4.33594 20.8828 4.10156C21.3984 3.86719 21.9375 3.75 22.5 3.75C23.0625 3.75 23.6016 3.86719 24.1172 4.10156C24.6328 4.33594 25.0781 4.70313 25.4531 5.20313L30.7031 12L38.6719 14.6719C39.4844 14.9219 40.125 15.3828 40.5938 16.0547C41.0625 16.7266 41.2969 17.4688 41.2969 18.2812C41.2969 18.6562 41.2422 19.0313 41.1328 19.4063C41.0234 19.7812 40.8438 20.1406 40.5938 20.4844L35.4375 27.7969L35.625 35.4844C35.6562 36.5781 35.2969 37.5 34.5469 38.25C33.7969 39 32.9219 39.375 31.9219 39.375C31.8594 39.375 31.5156 39.3281 30.8906 39.2344L22.5 36.8906L14.1094 39.2344C13.9531 39.2969 13.7812 39.3359 13.5938 39.3516C13.4062 39.3672 13.2344 39.375 13.0781 39.375C12.0781 39.375 11.2031 39 10.4531 38.25C9.70312 37.5 9.34375 36.5781 9.375 35.4844L9.5625 27.75L4.45312 20.4844C4.20312 20.1406 4.02344 19.7812 3.91406 19.4063C3.80469 19.0313 3.75 18.6562 3.75 18.2812C3.75 17.5 3.97656 16.7734 4.42969 16.1016C4.88281 15.4297 5.51562 14.9531 6.32812 14.6719L14.2969 12ZM16.5938 15.2344L7.5 18.2344L13.3125 26.625L13.125 35.5781L22.5 33L31.875 35.625L31.6875 26.625L37.5 18.3281L28.4063 15.2344L22.5 7.5L16.5938 15.2344Z" fill="url(#paint0_linear_3_218)"/>
</g>
<defs>
<linearGradient id="paint0_linear_3_218" x1="3.75" y1="21.5625" x2="41.2969" y2="21.5625" gradientUnits="userSpaceOnUse">
<stop stop-color="#B1D0FF"/>
<stop offset="1" stop-color="#6A7D99"/>
</linearGradient>
</defs>
</svg>
