<svg width="110" height="110" viewBox="0 0 110 110" fill="none" xmlns="http://www.w3.org/2000/svg">
<mask id="mask0_43_18" style="mask-type:alpha" maskUnits="userSpaceOnUse" x="0" y="0" width="110" height="110">
<rect width="109.741" height="109.741" fill="#D9D9D9"/>
</mask>
<g mask="url(#mask0_43_18)">
<path d="M54.8707 77.7335C56.1663 77.7335 57.2523 77.2953 58.1287 76.4189C59.0051 75.5425 59.4433 74.4565 59.4433 73.161C59.4433 71.8654 59.0051 70.7794 58.1287 69.903C57.2523 69.0266 56.1663 68.5884 54.8707 68.5884C53.5752 68.5884 52.4892 69.0266 51.6128 69.903C50.7364 70.7794 50.2982 71.8654 50.2982 73.161C50.2982 74.4565 50.7364 75.5425 51.6128 76.4189C52.4892 77.2953 53.5752 77.7335 54.8707 77.7335ZM54.8707 59.4433C56.1663 59.4433 57.2523 59.0051 58.1287 58.1287C59.0051 57.2523 59.4433 56.1663 59.4433 54.8707C59.4433 53.5752 59.0051 52.4892 58.1287 51.6128C57.2523 50.7364 56.1663 50.2982 54.8707 50.2982C53.5752 50.2982 52.4892 50.7364 51.6128 51.6128C50.7364 52.4892 50.2982 53.5752 50.2982 54.8707C50.2982 56.1663 50.7364 57.2523 51.6128 58.1287C52.4892 59.0051 53.5752 59.4433 54.8707 59.4433ZM54.8707 41.1531C56.1663 41.1531 57.2523 40.7149 58.1287 39.8385C59.0051 38.9621 59.4433 37.8761 59.4433 36.5805C59.4433 35.285 59.0051 34.199 58.1287 33.3226C57.2523 32.4462 56.1663 32.008 54.8707 32.008C53.5752 32.008 52.4892 32.4462 51.6128 33.3226C50.7364 34.199 50.2982 35.285 50.2982 36.5805C50.2982 37.8761 50.7364 38.9621 51.6128 39.8385C52.4892 40.7149 53.5752 41.1531 54.8707 41.1531ZM91.4512 91.4512H18.2903C15.7754 91.4512 13.6224 90.5558 11.8315 88.7648C10.0406 86.9739 9.14514 84.821 9.14514 82.3061V64.0159C11.66 64.0159 13.813 63.1204 15.6039 61.3295C17.3948 59.5386 18.2903 57.3857 18.2903 54.8707C18.2903 52.3558 17.3948 50.2029 15.6039 48.412C13.813 46.6211 11.66 45.7256 9.14514 45.7256V27.4354C9.14514 24.9205 10.0406 22.7676 11.8315 20.9767C13.6224 19.1857 15.7754 18.2903 18.2903 18.2903H91.4512C93.9661 18.2903 96.119 19.1857 97.9099 20.9767C99.7009 22.7676 100.596 24.9205 100.596 27.4354V45.7256C98.0814 45.7256 95.9285 46.6211 94.1376 48.412C92.3467 50.2029 91.4512 52.3558 91.4512 54.8707C91.4512 57.3857 92.3467 59.5386 94.1376 61.3295C95.9285 63.1204 98.0814 64.0159 100.596 64.0159V82.3061C100.596 84.821 99.7009 86.9739 97.9099 88.7648C96.119 90.5558 93.9661 91.4512 91.4512 91.4512ZM91.4512 82.3061V70.6461C88.6314 68.9695 86.4023 66.7403 84.7638 63.9587C83.1253 61.1771 82.3061 58.1477 82.3061 54.8707C82.3061 51.5937 83.1253 48.5644 84.7638 45.7828C86.4023 43.0011 88.6314 40.772 91.4512 39.0954V27.4354H18.2903V39.0954C21.11 40.772 23.3391 43.0011 24.9776 45.7828C26.6161 48.5644 27.4354 51.5937 27.4354 54.8707C27.4354 58.1477 26.6161 61.1771 24.9776 63.9587C23.3391 66.7403 21.11 68.9695 18.2903 70.6461V82.3061H91.4512Z" fill="url(#paint0_linear_43_18)"/>
</g>
<defs>
<linearGradient id="paint0_linear_43_18" x1="9" y1="55" x2="101" y2="55" gradientUnits="userSpaceOnUse">
<stop stop-color="#B1D0FF"/>
<stop offset="1" stop-color="#385683"/>
</linearGradient>
</defs>
</svg>
